<?xml version="1.0" encoding="utf-8"?>
<!-- Generator: Adobe Illustrator 18.1.0, SVG Export Plug-In . SVG Version: 6.00 Build 0)  -->
<svg version="1.1" id="Layer_1" xmlns="http://www.w3.org/2000/svg" xmlns:xlink="http://www.w3.org/1999/xlink" x="0px" y="0px"
	 viewBox="0 0 16 16" enable-background="new 0 0 16 16" xml:space="preserve">
<path d="M11.9,7.1c0,1.9-1.4,3.6-3.2,3.9c0.1-0.6,0.3-1.2,0.5-1.7c0.5-1.4,1.4-2.6,2.5-3.5C11.8,6.3,11.9,6.7,11.9,7.1 M3.9,7.1
	c0-0.5,0.1-0.9,0.2-1.3l0,0C4.2,5.9,4.3,6,4.4,6.1c0.1,0.1,0.2,0.2,0.3,0.3l0,0c0,0,0.1,0.1,0.1,0.1l0.1,0.1c1.2,1.3,2,2.8,2.3,4.5
	C5.3,10.7,3.9,9.1,3.9,7.1 M7.9,3.1c1.2,0,2.3,0.5,3,1.4C10.1,4.8,9.3,5,8.5,5.1C7.3,5.1,6,5,4.9,4.5C5.6,3.7,6.7,3.1,7.9,3.1
	 M4.1,4.9c1.2,0.5,2.5,0.8,3.8,0.8c1.4,0,2.7-0.3,3.8-0.8c-2.1,1.5-3.5,3.9-3.8,6.6C7.6,8.9,6.2,6.5,4.1,4.9 M12.1,5.5L13.4,4
	l-1.9,0.3l0,0c0,0,0,0,0,0c-0.8-1-2.1-1.7-3.5-1.7c-1.4,0-2.7,0.7-3.5,1.7c0,0,0,0,0,0L2.4,4l1.2,1.5l0,0C3.5,6,3.4,6.6,3.4,7.1
	c0,2.3,1.7,4.1,3.8,4.5c0,0,0,0,0,0l0.7,1.8l0.7-1.8l0-0.1c0,0,0,0,0,0c2.2-0.3,3.8-2.2,3.8-4.5C12.4,6.6,12.3,6,12.1,5.5
	C12.1,5.5,12.1,5.5,12.1,5.5"/>
</svg>
