<?xml version="1.0" encoding="utf-8"?>
<!-- Generator: Adobe Illustrator 18.1.0, SVG Export Plug-In . SVG Version: 6.00 Build 0)  -->
<svg version="1.1" id="Layer_1" xmlns="http://www.w3.org/2000/svg" xmlns:xlink="http://www.w3.org/1999/xlink" x="0px" y="0px"
	 viewBox="0 0 16 16" enable-background="new 0 0 16 16" xml:space="preserve">
<path d="M10.1,11.7l-1.3-1.7l2.9-0.2C11.4,10.6,10.8,11.3,10.1,11.7 M8.2,12.4v-1.4l0-0.1l1.5,1.1C9.3,12.2,8.8,12.3,8.2,12.4
	 M3.4,8c0-2.3,1.8-4.2,4-4.4l-0.2,5L4,7.8l2.6,1.8l-1.2,1.7l1.7-0.9l0.1,0.3l0,0.3v1.4C5.1,12.1,3.4,10.3,3.4,8 M12.1,8
	c0,0.5-0.1,1-0.2,1.4L8.9,9l1.7-2.4L8.3,8.3L8.1,3.7C10.3,3.8,12.1,5.7,12.1,8 M12.4,9.6c0.2-0.5,0.2-1,0.2-1.5c0-2.6-2-4.7-4.6-4.9
	L8,1H7.5L7.4,3.1C4.8,3.3,2.8,5.4,2.8,8c0,2.5,1.9,4.6,4.4,4.9v1l1-0.3v-0.7c0.7-0.1,1.4-0.3,2-0.6l0.6,0.5l-0.4-0.6
	c0.9-0.6,1.6-1.4,2-2.4l0.9-0.1L12.4,9.6z"/>
</svg>
