<?xml version="1.0" encoding="utf-8"?>
<!-- Generator: Adobe Illustrator 18.1.0, SVG Export Plug-In . SVG Version: 6.00 Build 0)  -->
<svg version="1.1" id="Layer_1" xmlns="http://www.w3.org/2000/svg" xmlns:xlink="http://www.w3.org/1999/xlink" x="0px" y="0px"
	 viewBox="0 0 16 16" enable-background="new 0 0 16 16" xml:space="preserve">
<g>
	<polygon points="11.9,7.3 13.5,7.3 11.4,3.5 10.6,5 	"/>
	<polygon points="10.6,10.8 11.4,12.2 13.5,8.4 11.9,8.4 	"/>
	<polygon points="4.5,8.4 2.9,8.4 5.1,12.2 5.9,10.8 	"/>
	<polygon points="6.9,4.4 9.6,4.4 10.4,3 6.1,3 	"/>
	<polygon points="5.9,5 5.1,3.5 2.9,7.3 4.5,7.3 	"/>
	<polygon points="6.9,11.3 6.1,12.7 10.4,12.7 9.6,11.3 	"/>
	<path d="M9,9.2l-1.6,0L6.6,7.9l0.8-1.4H9l0.8,1.4L9,9.2z M9.6,5.5H6.9L5.6,7.9l1.3,2.3l2.7,0l1.3-2.3L9.6,5.5z"/>
</g>
</svg>
